<svg width="820" height="320" viewBox="0 0 820 320" fill="none" xmlns="http://www.w3.org/2000/svg">
  <rect width="820" height="320" rx="24" fill="white"/>
  <path d="M152 36C103 55 66 106 58 162C48 230 83 291 147 313C112 286 90 252 84 212C72 126 126 56 205 34C187 28 170 28 152 36Z" fill="#2F56A7"/>
  <path d="M176 55C137 72 108 109 102 153C94 211 117 256 161 286C139 264 126 238 124 208C118 134 160 78 222 55C206 50 191 50 176 55Z" fill="#6FA6E8"/>
  <path d="M235 120C235 103 249 89 266 89H358C375 89 389 103 389 120C389 137 375 151 358 151H287C279 151 273 157 273 165C273 173 279 179 287 179H360C377 179 391 193 391 210C391 227 377 241 360 241H267C250 241 236 227 236 210C236 193 250 179 267 179H338C346 179 352 173 352 165C352 157 346 151 338 151H266C249 151 235 137 235 120Z" fill="#4C82D9"/>
  <path d="M418 120C418 103 432 89 449 89H546C563 89 577 103 577 120C577 137 563 151 546 151H473C465 151 459 157 459 165C459 173 465 179 473 179H548C565 179 579 193 579 210C579 227 565 241 548 241H450C433 241 419 227 419 210C419 193 433 179 450 179H526C534 179 540 173 540 165C540 157 534 151 526 151H449C432 151 418 137 418 120Z" fill="#4C82D9"/>
  <path d="M438 134L503 181L481 214L416 167L438 134Z" fill="#2F56A7"/>
  <path d="M424 165L505 106L525 133L444 192L424 165Z" fill="#77B0F2"/>
  <path d="M518 117L565 116L573 129L529 144L518 117Z" fill="#2F56A7"/>
  <path d="M605 120C605 103 619 89 636 89H728C745 89 759 103 759 120C759 137 745 151 728 151H657C649 151 643 157 643 165C643 173 649 179 657 179H730C747 179 761 193 761 210C761 227 747 241 730 241H637C620 241 606 227 606 210C606 193 620 179 637 179H708C716 179 722 173 722 165C722 157 716 151 708 151H636C619 151 605 137 605 120Z" fill="#4C82D9"/>
  <path d="M703 71L709 90H729L713 102L719 120L703 108L687 120L693 102L677 90H697L703 71Z" fill="#F3AE3D"/>
  <path d="M91 118L115 126L130 104" stroke="#2F56A7" stroke-width="14" stroke-linecap="round" stroke-linejoin="round"/>
  <path d="M124 97L132 90L142 100L134 107" fill="#2F56A7"/>
  <path d="M92 219L117 212L130 234" stroke="#2F56A7" stroke-width="14" stroke-linecap="round" stroke-linejoin="round"/>
  <path d="M124 231L132 238L142 228L134 221" fill="#2F56A7"/>
  <text x="410" y="296" text-anchor="middle" font-family="Arial, Helvetica, sans-serif" font-size="42" letter-spacing="8" fill="#274B95">solamio</text>
</svg>
