<svg width="420" height="200" viewBox="0 0 420 200" fill="none" xmlns="http://www.w3.org/2000/svg">
  <defs>
    <linearGradient id="sunGradient" x1="100" y1="25" x2="100" y2="95" gradientUnits="userSpaceOnUse">
      <stop stop-color="#FFD36A"/>
      <stop offset="1" stop-color="#FF8B4A"/>
    </linearGradient>
    <linearGradient id="panelGradient" x1="36" y1="90" x2="146" y2="160" gradientUnits="userSpaceOnUse">
      <stop stop-color="#5C7CFF"/>
      <stop offset="1" stop-color="#163EAF"/>
    </linearGradient>
    <linearGradient id="leafGradient" x1="48" y1="126" x2="144" y2="185" gradientUnits="userSpaceOnUse">
      <stop stop-color="#447BFF"/>
      <stop offset="1" stop-color="#102E8A"/>
    </linearGradient>
    <filter id="softShadow" x="0" y="0" width="420" height="200" filterUnits="userSpaceOnUse" color-interpolation-filters="sRGB">
      <feDropShadow dx="0" dy="5" stdDeviation="6" flood-color="#0E2F88" flood-opacity="0.14"/>
    </filter>
  </defs>

  <g filter="url(#softShadow)">
    <g transform="translate(18 10)">
      <circle cx="82" cy="68" r="32" fill="url(#sunGradient)"/>
      <g stroke="#FF8D63" stroke-width="7" stroke-linecap="round">
        <path d="M82 4V28"/>
        <path d="M104 9L97 31"/>
        <path d="M124 21L109 39"/>
        <path d="M139 39L118 50"/>
        <path d="M147 61L123 64"/>
        <path d="M145 84L122 79"/>
        <path d="M135 104L116 92"/>
        <path d="M118 121L106 101"/>
        <path d="M96 131L90 108"/>
        <path d="M68 131L74 108"/>
        <path d="M46 121L58 101"/>
        <path d="M29 104L48 92"/>
        <path d="M19 84L42 79"/>
        <path d="M17 61L41 64"/>
        <path d="M25 39L46 50"/>
        <path d="M40 21L55 39"/>
        <path d="M60 9L67 31"/>
      </g>

      <path d="M20 92H144L126 128H38L20 92Z" fill="url(#panelGradient)"/>
      <path d="M20 92H144L134 103H30L20 92Z" fill="#2E58E6"/>
      <path d="M38 128H126C115 153 101 170 82 180C63 170 49 153 38 128Z" fill="url(#leafGradient)"/>

      <g fill="#6D8BFF" stroke="#173FA8" stroke-width="2.2">
        <path d="M33 96L57 96L50 107L25 107Z"/>
        <path d="M58 96L83 96L75 107L50 107Z"/>
        <path d="M84 96L108 96L101 107L76 107Z"/>
        <path d="M109 96L133 96L125 107L100 107Z"/>
        <path d="M25 109L50 109L43 121L18 121Z"/>
        <path d="M50 109L76 109L68 121L42 121Z"/>
        <path d="M76 109L101 109L94 121L68 121Z"/>
        <path d="M101 109L125 109L118 121L93 121Z"/>
      </g>

      <path d="M42 137C58 137 69 146 76 157C63 158 52 164 43 173C27 165 18 151 16 138C22 137 31 137 42 137Z" fill="#447BFF"/>
      <path d="M122 137C106 137 95 146 88 157C101 158 112 164 121 173C137 165 146 151 148 138C142 137 133 137 122 137Z" fill="#447BFF"/>
    </g>

    <g transform="translate(198 44)">
      <text x="0" y="52" fill="#0E49B5" font-family="Segoe UI, Arial, sans-serif" font-size="54" font-weight="700">Sunergy</text>
      <text x="0" y="108" fill="#FF934C" font-family="Segoe UI, Arial, sans-serif" font-size="54" font-weight="700">Tech</text>
    </g>
  </g>
</svg>
