<svg xmlns="http://www.w3.org/2000/svg" viewBox="0 0 512 184" role="img" aria-labelledby="sunergyTechTitle sunergyTechDesc">
  <title id="sunergyTechTitle">SOLAMIO logo</title>
  <desc id="sunergyTechDesc">SOLAMIO logo with segmented circular mark and blue orange wordmark.</desc>
  <defs>
    <linearGradient id="orangeFill" x1="0%" y1="0%" x2="100%" y2="100%">
      <stop offset="0%" stop-color="#ff9c2a"/>
      <stop offset="55%" stop-color="#ff6925"/>
      <stop offset="100%" stop-color="#ff4f1f"/>
    </linearGradient>
    <linearGradient id="blueFill" x1="0%" y1="0%" x2="100%" y2="100%">
      <stop offset="0%" stop-color="#60b6ff"/>
      <stop offset="55%" stop-color="#3e8ff0"/>
      <stop offset="100%" stop-color="#256bd6"/>
    </linearGradient>
    <radialGradient id="centerGlow" cx="50%" cy="50%" r="50%">
      <stop offset="0%" stop-color="#ffffff"/>
      <stop offset="72%" stop-color="#f3f3f3"/>
      <stop offset="100%" stop-color="#dedede"/>
    </radialGradient>
  </defs>

  <rect width="512" height="184" fill="#000000"/>

  <g transform="translate(8 10)">
    <circle cx="111" cy="84" r="44" fill="url(#centerGlow)"/>

    <g fill="none" stroke="#ffffff" stroke-width="4" stroke-linecap="round">
      <path d="M16 83 H181"/>
      <path d="M28 41 C74 70 119 93 166 126"/>
      <path d="M28 126 C71 95 118 72 163 42"/>

      <path d="M70 12 C87 59 95 107 92 158"/>
      <path d="M112 0 C111 52 111 106 116 161"/>
      <path d="M152 11 C136 57 126 106 128 156"/>

      <path d="M42 26 A116 116 0 0 1 168 10"/>
      <path d="M18 54 A107 107 0 0 1 175 26"/>
      <path d="M8 84 A102 102 0 0 1 177 57"/>
      <path d="M14 112 A106 106 0 0 0 159 142"/>
      <path d="M31 137 A114 114 0 0 0 153 160"/>
    </g>

    <g stroke="#0a0a0a" stroke-width="2">
      <path d="M16 83 A95 95 0 0 1 44 27 L67 42 A67 67 0 0 0 44 83 Z" fill="url(#blueFill)"/>
      <path d="M17 83 A95 95 0 0 0 44 138 L67 125 A67 67 0 0 1 45 83 Z" fill="url(#blueFill)"/>
      <path d="M44 27 A96 96 0 0 1 84 9 L93 35 A67 67 0 0 0 67 42 Z" fill="url(#blueFill)"/>
      <path d="M44 138 A98 98 0 0 0 92 161 L95 133 A68 68 0 0 1 67 125 Z" fill="url(#blueFill)"/>
      <path d="M84 9 A107 107 0 0 1 132 0 L128 29 A78 78 0 0 0 93 35 Z" fill="url(#orangeFill)"/>
      <path d="M132 0 A105 105 0 0 1 174 18 L160 42 A76 76 0 0 0 128 29 Z" fill="url(#orangeFill)"/>
      <path d="M174 18 A98 98 0 0 1 191 41 L168 57 A70 70 0 0 0 160 42 Z" fill="url(#orangeFill)"/>
      <path d="M191 41 A91 91 0 0 1 200 66 L173 71 A63 63 0 0 0 168 57 Z" fill="url(#orangeFill)"/>
      <path d="M200 66 A84 84 0 0 1 202 84 L174 84 A56 56 0 0 0 173 71 Z" fill="url(#orangeFill)"/>

      <path d="M44 27 A116 116 0 0 1 84 9 L70 2 A128 128 0 0 0 30 20 Z" fill="url(#blueFill)"/>
      <path d="M30 20 A128 128 0 0 1 132 0 L132 -2 A136 136 0 0 0 70 2 Z" fill="url(#orangeFill)"/>
      <path d="M132 0 A128 128 0 0 1 190 30 L199 18 A141 141 0 0 0 132 -2 Z" fill="url(#orangeFill)"/>
      <path d="M16 83 A128 128 0 0 1 30 20 L18 11 A143 143 0 0 0 0 83 Z" fill="url(#blueFill)"/>
      <path d="M16 83 A128 128 0 0 0 44 138 L30 147 A143 143 0 0 1 0 83 Z" fill="url(#blueFill)"/>
      <path d="M44 138 A128 128 0 0 0 92 161 L96 176 A143 143 0 0 1 30 147 Z" fill="url(#blueFill)"/>
    </g>

    <g transform="translate(79 52)">
      <circle cx="22" cy="22" r="15" fill="#ffffff" stroke="url(#orangeFill)" stroke-width="2.6"/>
      <g fill="none" stroke="url(#orangeFill)" stroke-width="2.1" stroke-linecap="round">
        <path d="M22 3 L22 10"/>
        <path d="M22 34 L22 41"/>
        <path d="M3 22 L10 22"/>
        <path d="M34 22 L41 22"/>
        <path d="M8 8 L13 13"/>
        <path d="M31 31 L36 36"/>
        <path d="M8 36 L13 31"/>
        <path d="M31 13 L36 8"/>
      </g>
      <g fill="none" stroke="url(#orangeFill)" stroke-width="1.7" stroke-linecap="round" stroke-linejoin="round">
        <circle cx="22" cy="22" r="7.5"/>
        <path d="M21 14 C18 16 18 20 22 22 C25 23 26 26 23 29"/>
        <path d="M17 17 C22 17 25 19 25 22 C25 24 23 26 21 27"/>
        <path d="M21 13 L21 29"/>
      </g>
    </g>
  </g>

  <g font-family="Arial, Helvetica, sans-serif">
    <text x="165" y="118" font-size="96" font-weight="700" fill="url(#orangeFill)">solar</text>
    <text x="188" y="150" font-size="35" font-weight="700" fill="url(#blueFill)" letter-spacing="8">CRM</text>
  </g>
</svg>
